# xmcd
#
# Track frame offsets: 
#        150
#        19900
#        36217
#        50685
#        65727
#        82400
#        102762
#        118140
#        139895
#        156910
#        174107
#        188915
#        207450
#
# Disc length: 2969 seconds
#
# Revision: 6
# Processed by: cddbd v1.5.2PL0 Copyright (c) Steve Scherf et al.
# Submitted via: ExactAudioCopy v1.0b3
#
DISCID=c10b970d
DTITLE=Cale, J.J. - To Tulsa And Back
DYEAR=2004
DGENRE=Rock
TTITLE0=My Gal
TTITLE1=Chains Of Love
TTITLE2=New Lover
TTITLE3=One Step
TTITLE4=Stone River
TTITLE5=The Problem
TTITLE6=Homeless
TTITLE7=Fancy Dancer
TTITLE8=Rio
TTITLE9=These Blues
TTITLE10=Motormouth
TTITLE11=Blues For Mama
TTITLE12=Another Song
EXTD=Corrected version - removed J.J Cale from all tracks, corrected M
EXTD=otormouth
EXTT0=
EXTT1=
EXTT2=
EXTT3=
EXTT4=
EXTT5=
EXTT6=
EXTT7=
EXTT8=
EXTT9=
EXTT10=
EXTT11=
EXTT12=
PLAYORDER=
